<?xml version="1.0" encoding="UTF-8"?><svg id="Layer_2" xmlns="http://www.w3.org/2000/svg" viewBox="0 0 791.41 537.48"><defs><style>.cls-1,.cls-2{fill-rule:evenodd;}.cls-1,.cls-3{fill:#00758f;}.cls-4,.cls-2{fill:#f29111;}</style></defs><g id="Layer_1-2"><g><path class="cls-3" d="M190.27,489.64h-30.54c-1.08-51.54-4.05-100-8.92-145.41h-.27l-46.49,145.41h-23.25l-46.21-145.41h-.27c-3.43,43.6-5.58,92.07-6.48,145.41H0c1.8-64.87,6.3-125.68,13.51-182.44H51.35l44.06,134.06h.27l44.33-134.06h36.21c7.93,66.48,12.61,127.31,14.05,182.44"/><path class="cls-3" d="M322.71,355.04c-12.43,67.47-28.83,116.5-49.19,147.09-15.86,23.57-33.24,35.35-52.16,35.35-5.05,0-11.26-1.52-18.65-4.54v-16.26c3.61,.53,7.84,.81,12.7,.81,8.83,0,15.94-2.44,21.36-7.31,6.48-5.93,9.72-12.6,9.72-19.99,0-5.05-2.53-15.4-7.57-31.08l-33.51-104.07h30l24.05,77.83c5.4,17.67,7.66,30.01,6.76,37.04,13.16-35.14,22.34-73.43,27.57-114.87h28.92Z"/><polygon class="cls-4" points="729.2 489.64 642.45 489.64 642.45 307.2 671.64 307.2 671.64 467.2 729.2 467.2 729.2 489.64"/><path class="cls-2" d="M619.75,494.04l-33.54-16.54c2.98-2.45,5.82-5.09,8.39-8.15,14.24-16.74,21.36-41.52,21.36-74.32,0-60.36-23.69-90.55-71.08-90.55-23.24,0-41.36,7.65-54.33,22.98-14.24,16.76-21.35,41.44-21.35,74.05s6.3,55.6,18.91,70.54c11.54,13.51,28.92,20.27,52.17,20.27,8.68,0,16.65-1.07,23.89-3.21l43.67,25.41,11.91-20.51Zm-108.65-40.9c-7.39-11.89-11.09-30.97-11.09-57.29,0-45.95,13.97-68.93,41.89-68.93,14.6,0,25.32,5.5,32.17,16.48,7.38,11.9,11.08,30.82,11.08,56.76,0,46.31-13.97,69.47-41.89,69.47-14.59,0-25.32-5.49-32.16-16.5"/><path class="cls-4" d="M456.47,439.07c0,15.47-5.68,28.17-17.02,38.11-11.34,9.89-26.58,14.86-45.66,14.86-17.84,0-35.14-5.71-51.89-17.04l7.84-15.67c14.41,7.21,27.46,10.8,39.18,10.8,10.99,0,19.59-2.44,25.81-7.28,6.21-4.87,9.93-11.65,9.93-20.26,0-10.84-7.56-20.1-21.42-27.86-12.8-7.02-38.37-21.69-38.37-21.69-13.86-10.11-20.8-20.96-20.8-38.83,0-14.78,5.18-26.72,15.53-35.81,10.37-9.11,23.75-13.66,40.14-13.66s32.34,4.52,46.21,13.53l-7.05,15.66c-11.87-5.03-23.57-7.56-35.11-7.56-9.36,0-16.58,2.25-21.61,6.77-5.06,4.48-8.18,10.25-8.18,17.29,0,10.8,7.72,20.18,21.97,28.09,12.96,7.03,39.16,21.97,39.16,21.97,14.25,10.09,21.36,20.85,21.36,38.57"/><path class="cls-1" d="M765.84,246.08c-17.64-.44-31.3,1.32-42.77,6.17-3.31,1.32-8.59,1.32-9.04,5.51,1.78,1.76,1.99,4.62,3.54,7.06,2.64,4.41,7.26,10.35,11.46,13.44,4.63,3.53,9.26,7.04,14.12,10.13,8.59,5.31,18.29,8.38,26.65,13.68,4.87,3.08,9.7,7.05,14.57,10.36,2.41,1.76,3.95,4.63,7.04,5.72v-.67c-1.55-1.98-1.99-4.84-3.52-7.06-2.2-2.19-4.41-4.19-6.62-6.38-6.4-8.6-14.34-16.09-22.92-22.26-7.06-4.86-22.5-11.48-25.35-19.61,0,0-.23-.23-.45-.45,4.85-.45,10.59-2.21,15.22-3.55,7.48-1.98,14.32-1.53,22.03-3.51,3.53-.89,7.06-2,10.6-3.08v-2c-3.99-3.96-6.84-9.26-11.03-13-11.23-9.7-23.59-19.17-36.37-27.11-6.84-4.41-15.66-7.26-22.94-11.02-2.63-1.32-7.04-1.98-8.59-4.19-3.97-4.85-6.18-11.23-9.04-16.97-6.38-12.11-12.57-25.55-18.07-38.36-3.96-8.59-6.39-17.18-11.24-25.12-22.72-37.48-47.4-60.17-85.31-82.44-8.16-4.64-17.86-6.62-28.21-9.04-5.52-.23-11.03-.66-16.54-.88-3.53-1.55-7.07-5.74-10.15-7.72-12.57-7.93-44.96-25.12-54.22-2.42-5.95,14.34,8.82,28.44,13.89,35.72,3.74,5.06,8.6,10.8,11.23,16.53,1.55,3.75,1.99,7.72,3.54,11.69,3.52,9.7,6.83,20.5,11.46,29.55,2.42,4.63,5.06,9.49,8.15,13.65,1.78,2.44,4.86,3.53,5.52,7.51-3.08,4.4-3.32,11.02-5.08,16.53-7.93,24.91-4.85,55.77,6.4,74.07,3.52,5.51,11.9,17.64,23.15,13,9.92-3.96,7.71-16.53,10.58-27.54,.66-2.66,.22-4.41,1.54-6.17v.45c3.08,6.16,6.18,12.1,9.04,18.29,6.84,10.79,18.73,22.04,28.67,29.53,5.28,3.98,9.47,10.8,16.08,13.24v-.67h-.44c-1.32-1.98-3.3-2.87-5.07-4.4-3.97-3.97-8.37-8.82-11.47-13.23-9.25-12.34-17.42-26.02-24.68-40.12-3.54-6.85-6.61-14.34-9.48-21.17-1.32-2.63-1.32-6.61-3.53-7.93-3.32,4.84-8.15,9.04-10.57,14.97-4.19,9.49-4.63,21.17-6.18,33.3-.88,.23-.44,0-.88,.44-7.05-1.76-9.47-9.03-12.12-15.19-6.61-15.67-7.72-40.8-1.98-58.88,1.54-4.62,8.17-19.17,5.51-23.58-1.33-4.21-5.74-6.61-8.16-9.93-2.86-4.19-5.97-9.47-7.93-14.11-5.29-12.34-7.95-26.01-13.67-38.35-2.65-5.74-7.29-11.69-11.02-16.97-4.2-5.95-8.82-10.14-12.13-17.19-1.09-2.43-2.64-6.4-.88-9.04,.44-1.77,1.33-2.43,3.1-2.88,2.85-2.42,11.02,.66,13.88,1.98,8.16,3.3,14.99,6.4,21.82,11.02,3.09,2.21,6.4,6.4,10.36,7.51h4.64c7.05,1.53,14.99,.43,21.61,2.42,11.67,3.74,22.25,9.26,31.74,15.21,28.87,18.3,52.68,44.32,68.76,75.39,2.65,5.06,3.76,9.7,6.18,14.98,4.63,10.83,10.37,21.85,14.99,32.42,4.63,10.36,9.05,20.93,15.67,29.54,3.3,4.62,16.53,7.05,22.48,9.48,4.4,1.98,11.24,3.74,15.21,6.16,7.5,4.62,14.98,9.92,22.04,15,3.52,2.64,14.54,8.15,15.21,12.57"/><path class="cls-4" d="M786.85,489.62h4.56v-22.35h-6.85l-5.58,15.24-6.08-15.24h-6.61v22.35h4.31v-17.01h.25l6.36,17.01h3.29l6.35-17.01v17.01Zm-36.81,0h4.83v-18.56h6.33v-3.79h-17.75v3.79h6.58v18.56Z"/></g></g></svg>